<?xml version="1.0" encoding="utf-8"?>
<!-- Generator: Adobe Illustrator 25.0.1, SVG Export Plug-In . SVG Version: 6.00 Build 0)  -->
<svg version="1.1"
	 id="Warstwa_1" xmlns:dc="http://purl.org/dc/elements/1.1/" xmlns:mapsvg="http://mapsvg.com" xmlns:rdf="http://www.w3.org/1999/02/22-rdf-syntax-ns#" xmlns:svg="http://www.w3.org/2000/svg"
	 xmlns="http://www.w3.org/2000/svg" xmlns:xlink="http://www.w3.org/1999/xlink" x="0px" y="0px" viewBox="0 0 612.8 577.2"
	 style="enable-background:new 0 0 612.8 577.2;" xml:space="preserve">
<style type="text/css">
	.st0{fill:#009245;stroke:#FFFFFF;stroke-miterlimit:10;}
	.st1{fill:none;stroke:#FFFFFF;stroke-miterlimit:10;}
	.st2{fill:none;}
	.st3{font-family:'MyriadPro-Regular';}
	.st4{font-size:7px;}
</style>
<path id="PL-DS" class="st0" d="M52.3,352.5l2.4,0.1l0.3-2.9l3.6-0.4l0.8-3l5.9-3.6l9,5.4l0.7-6l2.2,0.1l-0.7-3.1l1.7-2.8l5.3,1.6
	l0.3-1.3l6.4,5.6l0.4,2.3l6.8-7l0.3-3.5l6.4-2l2.1-8.3l-2.2-1.1l3-2.1l0.1-3l6.7-2.3l-0.8-2.3l2.5-0.7l-2.5-1.2l1.2-1.5l2.7,0.1
	l0.4,2.1l5.9,2.2l2.7-0.5l-1,5.2l3.3-0.2l3.5,5l5.9-5.4l0.6-3.9l2.6-2.6l0,0l7.7,0.1l4.9,3.3l2.2,4.2l-1.5,4.7l7.8,1.2l1.9,4.6
	l10.1,5.4l5.9,0l0.3-2l2.6-0.9l5.9,0.8l0.7-6.1l5-1.6l10.4,2l5.4,4.1l0,0v0.8l0,0l1.4,3.7l-4.1,3.2l2.2,9.9l11.9-1l-1.8,6.7l2.2,1.2
	l-0.2,8.4l3.2,5.3l0,0l-8,3l-3.8-2.8l-0.6,2.1l-3.2,1.4l2.1,6.9l-3.8,2.2l-0.3,4.6l1.6,2.1L206,389l1.3,1.6l-5,0.4l-0.2,5.5
	l-3.6-1.5l-1,2.4l2.7,1.1l-0.8,2.6l-3.4,1.1l1.2,6.2l-3.8-1l-1.9,2.2l2.3,2.5l-4.3,3l2.2,2.3l-1.4,0.9l0.6,5.9l-7.6,1.1l-3.5,6.2
	l-0.8,7.2l-6.1-1.5l0,0l-0.3,0.2l0,0l-2.2,3.2l0,0l-3.1,3.8l3.1,1.8l2.3,7l3.4,1.2l1.5,6.9L176,463l-1.4-2.7l-1.3,2.1l-3.4-0.1
	l-1,2.2l-2.3-0.7l-3.8,5.9l-5.7,4.4l-6.6-4.2l-1.4-7.4l-7.5-9.5l-3.2-0.8l-1.4-4.8l-3.4-0.3l-1.5,1.5l-5.1-6.2l7.1-7.1l2.9,0.5
	l2.4-2.6l0.2-3.9l2.4-1l-6.2-8l-6.6-0.9l-1,3.5l-1.9,0.6l-5.2-3.4l-4.8,6.2l-2.3-1.4l2.2-1.6l-1.9-5.2l-7.9,0.9l-2.8-7.8l-6.7,1.8
	l-6.2-3.8l-4.9-0.1l-5.2-2.9l-3.9,3l-0.4-5.6l-5.5-5.2l-0.2-8.6l-2.2-1.9l-4.1,1.2l-0.1-3.3l-2.4,2.9l-4.2-3.2l-4.6,1.1l-1,2
	l3.3,2.2l-2,4.3l0.8,5.4l-10.9-0.4l8.6-17.5l4.6-18.8l-0.3-4.7L52.3,352.5z"/>
<circle class="st1" cx="182.2" cy="362.6" r="8.9"/>
<path id="PL-KP" class="st0" d="M199.9,140.1l1.8-9.6l5.5-4.1l0.9,3.6l3,0.7l2.1-1.9l3.9,2.6l-0.9-2.9l3.9-0.2l-1-3l2.3-6l4.5,0.4
	l4.5-2.6l-1.9-5.2l5.3,0.5l3.6,3.4l4.2-6.1l2.4,2.5l2.4-0.8l1.1,2.4l1.9-1.3l0,0v1.1l0,0l4.2,0.1l-0.2,4.4l12,1.5l0.7-1.7l2.7-0.2
	l-0.2,2.5l2.4,2.6l1.9-0.4l-0.5-1.9l3.2,0.4l1.5-2.2l4.7,1.2l2.3-1.6l-1.8,5.8l1.8,3.8l8.4,1.1l-0.2,1.8l5.5-1.9l9.2,1.2l0,0
	l3.4,1.5l0.3,5.8l4.2,10.9l1.9,1.4l0.8-2.1l4.3-0.4l3.8,3.3l-0.2,1.8l3.9-0.8l1.4,3.7l9.1-0.8l2.7,7.7l-2.8,1.4l0.3,2.4l3.2,0.7
	l0.1,2.4l0,0h-0.3l0,0l1.5,5.2l0,0l-4.2,3.1l0,0l-0.5-0.1l0,0l-1.1,1.7l-1.9-0.5l1.1,7.5l2.3,1.7l-1.6,3.4l1,3.2L332,191l1.4,3
	l-3,2.4l-5.1-1l4.1,8.5l-2.5-0.2l-2.9,4.9l4.9,4.7l-0.5,2l1.6-0.1l-1.5,1.8l1.6,2.7l-5.1-1.8l0.6,5.1l-2.2,0.2l-2.9,4.6l3.2,2.5
	l-3.5,3.2l0,0l-0.8,0l0,0l0,4.2l-1.7-0.2l4.4,1.8l-4.7,6.4l-3.1,0l1.5,1.7l0,0l0.4,0.6l0,0l-0.4,2.7l0,0l-4.9,3.2l0.6,2.2l-1.2-1.7
	l-9.4,2.7l0,0l-4.7-2.3l0.4-1.9l-3.3-2.5l-0.6,3.4l-9.6,3.3l-2.4-6.4l-2.2-0.2l0.2-2.8l-1.6,0.6l-0.5-2.8l-3.4-1.8l-2,0.6l-2.3-3.6
	l-2-0.6l-1.6,2.8l-4.6,0.6l-1.2-7.3l-6.5,6.1l-3.4-0.2l-0.5-2.2l-6.3-1.5l0.2-3.4l-6.6,0.9l0.5-3.5l-1.3,1.1l-2-2.9l-1.2,1l-2.9-5.6
	l-2.3,0.6l-2.8-2.2l-1.4,2.3l-0.4-2.3l-5.2,5.6l0.2-4.8l-3.1-0.4l0.1-5.6l-3.2,0.4l-3.4,3.2l-3.2-0.9l1-4.7l-5.1-2.8l0.3-2.9
	l5.8-0.3l0.9-14.1l-7.5-5.6l-4.8,0.9l-0.9-2.2l1.5-2.2l0,0l0.3-0.1l0,0l-0.4-5.9l2.4-1.4l-0.6-4l2.4-1.2l-3.2-1.3l0.6-4.7l-1.6-1.5
	l5.5-1.3l1.5-4.1l-6-8.1l-3.5-1.2l-0.9,1.4l-1.2-3.5L199.9,140.1z"/>
<path id="PL-LD" class="st0" d="M315.8,250.5l3.9,4.7l6.6-0.8l2.9,1.5l-0.2,1.8l7.3,2.9l2.5,3.5l2.5-2l2.9,1.3l3.7-2l2.8,0.5
	l2.6-3.2l4.1,2.6l0.6,2.5l3.2-1.2l3.3,3.3l-0.5,4.8l2.3,3.8l3.6,0.1l1.6,2.8l4.6,1.4l-0.8,4.7l-3.4,2.7l3.3,1.7l1.3,2.8l0.3,1.7
	l-2.9,2.9l4.3-0.1l0.5,2.4l6.8-2.9l3.5,2.3l1.1,2.9l3.7,0.2l3.2,7.3l-3.8,0.3l1.5,0.7l0.1,6.1l4.6,2.2l0,2.8l-2.3,3.9l-6.2-1.3
	l-3.2-2.9l-4.6,3.8l2.6,8.5l2.1,1.6l-1.1,5.2l5-0.9l0.5,2.2l-2.5,6l-4,4.2l-0.4,3.5l0,0l-0.9,3l-2.6,1l1.3,4l-1.4,3.2l-2.4-2
	l-1.7,1.6l-2.7-1.8l-1.1,0.3l1.4,4l-1.4,1l-3.7-0.4l-1.6,1.7l-6.1-2.4l-2.9,1.2l1.3,3.1l-2.5,2.3l0.1,6.1l4.7,1.5l-1.8,9.2l-4.2-2.2
	l-5.2-6.1l-2.9,7.1l0.9,4.3l0,0v1l0,0l-0.9,1.4l0,0l-0.1,0l0,0l-1,1.1l0,0l-0.5,0.4l0,0l-1,0.1l0,0l0.1,0.2l0,0L344,401l0,0
	l-4.6,1.1l-0.4-3l-4.9-2.5l-5.6,2l-1.1-5.2l-4.1-5.9l-1.3-0.8l-2.4,1.9l-2.4-3l0.5-2.2l-3.9,1.3l0.4,2.7l-2.7,1.6L308,386l-1.7,0.8
	l-2.1-3.2l-2,0.6L295,378l-2,0.3l-2.2,3.7l-1.6-1.6l-11.7,2.1l0,0l-5-2.9l-2.1-5.5l-1.7,0.2l-1.8,4.5l-1.5-2.8l-9.7-1.4l-8.9-3.9
	l0,0l1.5-9.4L244,362l-1.9-8.8l2.8-0.5l1.1-2.8l3.4-0.4l0.8-2.9l-1.4-2l2.8-0.8l5.4,3.2l3.4-5.5l-1.5-5.7l1.2-6l-1.8-0.7l2-5
	l-1.7-0.7l3.5-4.5l-0.4-4l1.6-1.7l-1.2-2.5l1.9-1.3l-0.3-2.1l1.9,0.5l0.2-3.1l1.8-0.6l0.8,2.2l4.8-1.2l5.7,2.1l0.6-4l5.7-6.7
	l-4.1-3.8l-0.8-9.6l1.9-1.2l5.2,1.8l0.9-2.7l5.3-0.1l1-3.9l-2.2-2l1.2-5.7l4-1.6l5.8,1.6l-1.1-2.1l2-1.4l-0.3-2.4l-4.3-0.5l1-6l0,0
	l9.4-2.7l1.2,1.7l-0.6-2.2L315.8,250.5z"/>
<path id="PL-LU" class="st0" d="M550.4,261.7l2.9,0.2l0,0l1.5,0.8l0.1,4.9l11.5,2.5l1.8,2.8l4.7-0.7l-0.8,2.6l3.7,4.2l3-0.7l3.3,3.7
	l-0.6,2.2l2.8,6.6l-3.8,4.2l1.2,1.6l-2,1.6l1.6,2.4l-0.5,2l-1.5-0.4l-0.3,3.5l2.3,4l-6.8,7l1.9,3l-1.3,5.4l1.7,10.7l2.7,0.6l0.7,3.1
	l2.6,0.8l-0.8,4.2l3.2,2.6l-1.1,5l-2.9,3.5l0.5,4h3.1l2.6,7.6l8,6.1l-0.8,5l3.2,2.5l1.5,5.7l-1.3,0.4l2.7,2l0.8,3.8l5.1,5.7l5.7,2.2
	l-2.4,2.8l-6.3-0.2l-2.5,2.6l0.4,3.8l3.4,0.9l-0.3,4l3.3,0.3l-0.5,4l2,4.1L609,430l-3.5,11.2l-2.2,3.2l-16.5,2.2l-2.6,5.4l-8.7,7.9
	l0,0l-2.1-1.2l0.6-3.3l-6.9-0.8l1.7-4.3l0,0h-0.4l0,0l-3-2l0.5-3.5l-1.7-0.5l-6.6,5l-4.2-3.6l-10,10.4l-25-2l0-1.9l4.7-2.6l-11,1.1
	l-4.1-5.3l-2.2,0.4l0.6-2.6l2.9-1.1l-0.8-2.6l6.1,0.8l2.6-2.5l-3.8-0.5l3-1l-0.4-1.4l-2.8,0.1l0.5-6.6l-3.4-1.5l-2.9,1l-4.2-3.7
	l-5.5-0.5l-3-4.2l-4.3-0.2l4.1-8.6l-2.3-4.2l-6.4-1.9l-3.3,3.4l-6.7,1.1l-2.6-3.2l0,0l-1.6-2.9l-2.2-21.9l0,0l-0.8-5.5l1.6-3.1
	l-1.9-3.9l3.1-9.2l-2.8-0.3l1.8-0.8l1.7-5.1l-1.2-2.6l-1.6,0.6l-2.8-2.5l2.6-2.6l2.2,1l2-5.6l-3.3-8.8l-6.5,0.1l-5.8-5.4l1.9-4.1
	l6.2,4.7l0.7-2.8l5.2-0.5l0-2.6l3.7-2.2l0.3-2.1l-3.7-3.6l6.9-4.6l-2-4l-4,1.2l-0.8-1.9l3.6-4.1l-2-5.2l0.8-4l9.2-5.3l5.3,2.1
	l1.5-2.5l6.9,1.7l2.8-2.8l2,3.4l4.6-0.7l4.6-4.9l7.6,5.8l2.8-4.7l-1.3-2.7l3.5-3.3l5.9,4.4l2.4-1.3l4.1,1.6l0.4-4.1l3.4,0l-1.6-2.9
	l3-3.4l5.4,0.4l-2.6-4.3L550.4,261.7z"/>
<path id="PL-LB" class="st0" d="M29.5,229.6l-0.1-3.6l2.1-1.8l4.7,2.6l2.3-1.4l3.2-11.5l4-3.2l-0.8-3l3.9-1.2l-2-1.9l2-2.8l5.3,4.4
	l2.6-1.8l2.2,2.5l15-6.4l-2.2-6.5l4.6,1l3.3-3.8l8.2-2.8l5.7,3.2l2.6-2.2l2.4,1.2l2.3-1.3l-1-2.1l3.2-1.3l-1.7-2.1l2.5-0.5l-0.5-2
	l3.1-1.4l-0.4-2.4l8.1,1.9l-1.5,6.3l0,0L112,190l0,0v0.3l0,0l0.5,3.1l0,0l0.2,0.1l0,0l0.8,10.7l-4.3,2.1l-0.8,2.5l2.6,1.1l0.6,7.2
	l-8.7,2l1.2,3.4l-2.2,6.8l4.3,6.1l-1.4,2.5l3.2,3.2l1,4.4l-3.1,2l-1.4-2.7l-0.8,1.8l5.6,4.8l-3,12.8l1.5,11.5l-1.8,3.4l4.3,4.5
	l1.3-1.7l2.2,1l0.5,2.3l-1.8,2.6l3.7,4.8l6.4-1.9l0.9,6.7l-2.2,3.1l3.7,0.2l2.4,2.2l2.8-3.5l3,0.8l5.5,4.6l2.2,6.5l0,0l-2.6,2.6
	l-0.6,3.9l-5.9,5.4l-3.5-5l-3.3,0.2l1-5.2l-2.7,0.5l-5.9-2.2l-0.4-2.1l-2.7-0.1l-1.2,1.5l2.5,1.2l-2.5,0.7l0.8,2.3l-6.7,2.3l-0.1,3
	l-3,2.1l2.2,1.1l-2.1,8.3l-6.4,2l-0.3,3.5l-6.8,7l-0.4-2.3l-6.4-5.6l-0.3,1.3l-5.3-1.6l-1.7,2.8l0.7,3.1l-2.2-0.1l-0.7,6l-9-5.4
	l-6,3.6l-0.8,3l-3.6,0.4l-0.3,2.9l-2.4-0.1l0,0l-1.4-10.3l-13.5-6l-1.1-3.1l3.3-4.4l-0.5-5.2l-5.4-6.5l-1.4-6.9l-3.4-2.5l1.2-3.4
	l5.2-4.5l1.2-10l2.7-6.1l-4.7-5.1l2-11.9l-7.4-3.7l-3.5-12.1l0.9-3.8l5.3-6.1l-1.9-3.9l2.1-3.9L29.5,229.6z"/>
<path id="PL-MA" class="st0" d="M356.1,435.5l2.3-1.4l17.4,4.8l0,3.4l4.1,6.5l-2.7,1.2l0.2,2.5l4.2,3.1l-1.6,2l3.5,3.3l-1.4,2.6
	l2.2,0.3l0.3,1.7l15.9-1.9l6.8-7.4l2.8,1.5l3.5-3.2l10-1l4.6-3.6l2.6,2.4l2-2.4l0,0l0.6,3.9l-4.5,5.2l1.9,4.4l-1.5,6.5l2,0.5
	l-1.8,0.4l2.5,0.7l0.6,2.7l-2,0.5l1.2,1.5l-2.3,1.7l2.5,2.6l-2.6,4.2l2,5.4l5.8,0.4l1,2l-0.8,1.6l-3.1-0.2l-0.2,3.1l-5.6,1.2
	l1.9,2.3l-0.8,3.6l5.5,0.1l1.1,2l3,0.4l2.5,5.3l0.7,5l-2.6,5.2l2.9,1.9l-0.9,2.4l3.7,4.7L444,532l0.5,4.9l0,0l-7.4-2.5l-4,5.5
	l-5.1-3.1l-4.4,1.3l3.1,4.2l-3.8,1l-3.1,5.2l-3.7,1l-1.6-2.7l-1.8,0.6l-0.6-2.5l-1.7,1.2l-2.4-0.9l0.8-1.3l-3.1-1.2l-1.2-4.3
	l-5.6,1.4l-1.9-1.6l-2.5,3.9l-6.4-3.7l-2.5-0.2l0.1,1.9l-0.9-1l-1.6,1.5l-1.1-1.6l-2.3,0.4l-1.2,5.6l-5.7-0.7l-3.7,4.5l-0.8-1
	l-3.9,12.7l-8.5-5.2l-2.6,0.4l-1.8,3.1l-5.1-0.2l-1.3-3.4l3.4-4l-1.7-2.1l-0.3-10.2l-4.5,2.2l-5.4-2l0.7-4.6l-3.5,0.2l-3.3-11
	l-3.2-1.6l-0.5-2.2l0,0l0.8-5.3l-6-2.4l4.6-4.3l-0.7-3.2l-7.3-1.2l-2-7.7l-7.4,0.6l2.2-7.8l-1.1-1l-2.2,1.4l0,0h-0.6l0,0l-1.1,0l0,0
	h-0.8l0,0l-2.1-1.1l1.9-1.2l-0.2-3.3l3.5-5.8l3.9-0.6l-1.2-0.9l2.3-5.3l0,0h0.3l0,0l0.3,1.9l1.1-2.8l4.1-0.6l1.5-2.2l-1.3-1.6
	l4.4-1.7l0.7-2.1l-6.2-3.1l-1.1-3l3.4-2.7l7.6-0.4l0.4-3l-2.5-1.9l0,0l0.3-0.1l0,0l2.5,0.6l-0.5-2.6l2.1-2l3.9,1.1l4-0.7l3.1-2.9
	l8.6,0.5l2.8-1.4l0.1-1.9l4.4-0.1L356.1,435.5z"/>
<path id="PL-MZ" class="st0" d="M344.6,174.6l5.2,0.8l-0.7-4l5.1-3l0,0l0.3,0.6l0,0l-0.5,3.4l4.2,2.8l7.2-2l2.4,2.2l2.2-1.1l8.5,1.8
	l4.3-2.6l-0.7-4.7l4.8-3.8l5.9,2.1l6.3-2.7l3.8-6.2l8.1,2l1.3-3.1l3.2,0.2l-1-2.8l1.6-1.3l3.8-0.4l3.4,2.9l13.5-9.9l5.3,1l5.1-2.1
	l0.3-2.4l9-1.6l0,0l0.3,1.5l0,0h-0.5l0,0l2.6,4l-0.8,1.9l3.5,4.2l-1.9,3.6l2.4-0.4l2.7,2.4l-4.2-0.1l0,0l0-0.4l0,0l-1.6,3.2l1,2.4
	l-2.1-0.4l3.9,5.2l-1.1,0.7l2.2,4.4l-0.6,2.8l2.3,2.8l4.5-0.6l3.6,5.5l4.4-1.1l0,0l-1.1,1.6l0,0l1.1,1.7l-2.6-0.7l-1.1,3.6l7.2,4.7
	l0,0h-0.5l0,0l2.3,2.3l-2.1,2.1l2.8,6.4l10.7-0.8l0.3-2.9l3,0.1l0.5,3.6l1.9-0.4l-0.9,1.8l-2.9,0.1l2.2,5.9l2.2-0.2l0.8,2.2l3.3-2.2
	l-0.1-1.6l4.3,0.8l0.6,13.5l-4.3,4.5l3.9,2.7l4.2,6.4l-0.9,4l2.5,1.8l-0.7,4.1l2.3,3l7.7,0.1l1.4,2.7l1.4-1.9l6,2.5l6.2-1.2l2.8,3.8
	l3.1,0.7l0.5,4l3.5-1.6l1.3,1.6l0,0l-5.7,6.5l2.6,4.3l-5.4-0.4l-3,3.4l1.6,2.9l-3.4,0l-0.4,4.1l-4.1-1.6l-2.4,1.3l-5.9-4.4l-3.5,3.3
	l1.3,2.7l-2.8,4.7l-7.6-5.8l-4.6,4.9l-4.6,0.7l-2-3.4l-2.8,2.8l-6.9-1.7l-1.5,2.5l-5.3-2.1l-9.2,5.3l-0.8,4l2,5.2l-3.6,4.1l0.8,1.9
	l4-1.2l2,4l-6.9,4.6l3.7,3.6l-0.3,2.1l-3.7,2.2l0,2.6l-5.2,0.5l-0.7,2.8l-6.2-4.7l-1.9,4.1l5.8,5.4l6.5-0.1l3.3,8.8l-2,5.6l-2.2-1
	l-2.6,2.6l2.8,2.5l1.6-0.6l1.2,2.6l-1.7,5.1l-1.8,0.8l2.8,0.3l-3.1,9.2l1.9,3.9l-1.6,3.1l0.8,5.5l0,0l-3.2,2.8l-2.8-0.2l-2-3.5
	l-3.9,0.2l1.1,1.1l-5.3,1.6l-2.1-0.9l0.3,2l-3.1,2.4l-4.9-2.7l-1.9-4.3l-12.2,0.4l0.7-4.7l-4.5-2.4l1.8-3.2l-2.2-2.7l-1.5,5.5
	l-3.7,1.2l-0.8-2.1l-2.3,2.1l-3.2-2.5l-0.2,3.5l-2-0.8l-0.1,1.6l-8.5-4.5l-1.9,2.2l0.7-4.4l-5.6-4.9l-3.2,1l-0.9-5.6l-2.6-1.9
	l1.3-2.9l-5.4-0.8l0,0l0.4-3.5l4-4.2l2.5-6l-0.5-2.2l-5,0.9l1.1-5.2l-2.1-1.6l-2.6-8.5l4.6-3.8l3.2,2.9l6.2,1.3l2.3-3.9l0-2.8
	l-4.6-2.2l-0.1-6.1l-1.5-0.7l3.8-0.3l-3.2-7.3l-3.7-0.2l-1.1-2.9l-3.5-2.3l-6.8,2.9l-0.5-2.4l-4.3,0.1l2.9-2.9l-0.3-1.7l-1.3-2.8
	l-3.3-1.7l3.4-2.7l0.8-4.7l-4.6-1.4l-1.6-2.8l-3.6-0.1l-2.3-3.8l0.5-4.8l-3.3-3.3l-3.2,1.2l-0.6-2.5l-4.1-2.6l-2.6,3.2l-2.8-0.5
	l-3.7,2l-2.9-1.3l-2.5,2l-2.5-3.5l-7.3-2.9l0.2-1.8l-2.9-1.5l-6.6,0.8l-3.9-4.7l0,0l0.4-2.7l0,0l-0.4-0.6l0,0l-1.5-1.7l3.1,0
	l4.7-6.4l-4.4-1.8l1.7,0.2l0-4.2l0,0l0.8,0l0,0l3.5-3.2l-3.2-2.5l2.9-4.6l2.2-0.2l-0.6-5.1l5.1,1.8l-1.6-2.7l1.5-1.8l-1.6,0.1l0.5-2
	l-4.9-4.7l2.9-4.9l2.5,0.2l-4.1-8.5l5.1,1l3-2.4l-1.4-3l7.6,3.5l-1-3.2l1.6-3.4l-2.3-1.7l-1.1-7.5l1.9,0.5l1.1-1.7l0,0l0.5,0.1l0,0
	L344.6,174.6z"/>
<path id="PL-OP" class="st0" d="M224.9,369.2l3.1,1.6l-1.9,5.4l4,1.5l16.7-6.8l0,0l8.9,3.9l9.7,1.4l1.5,2.8l1.8-4.5l1.7-0.2l2.1,5.5
	l5,2.9l0,0l1.8,3.3l-2.4,1.2l0.1,2.9l-2.3,1.7l1.8,3.7l-1.3,5.5l-3.3,2.6l-0.7,3.1l-3,0.7l4.3,5.2l-5.6,4.2l2.7,7.5l4.1,1.8l0.3,5.3
	l-10.4,0.5l2.9,8.1l-6.2-2.4l0.5,4.2l-1.5,2l1.8,2.9l-2.2,3.1l2.9,3.1l-0.7,4.6l1.7,0.3l0.3,2.3l-4.5-1l-7.1,4.1l0.4,1.8l0,0l0.4,0
	l0,0l-7.8,1.4l-0.7,1.4l-0.6-1.4l-2.4,0.6l0.7,6.2l-2.4,4.2l0,0l-1.8,2.6l2.4,0.2l0.1,3l-2.5-1.3l-8.2,4.3l-2.5-3.6l-3.2-0.9
	l-3.5-8.1l-4.2-0.5l-3.5-4.6l10.1-4.5l0.4-2.8l-2.4-2l1.7-4l-2.1-2l-1.9-0.7l0.1,2.6l-4.5,3.3l-7.2-0.9l-3.4,2.2l-3.3-3l-2.1,1.8
	l-0.1-6.1l-4.1,0.8l-5.1-4.3l0.2-2l-3.7,0.5l-2-2.3l-8.3-1.3l-3.9-2.8l0,0l2.2-3.2l0,0l0.3-0.2l0,0l6.1,1.5l0.8-7.2l3.5-6.2l7.6-1.1
	l-0.6-5.9l1.4-0.9l-2.2-2.3l4.3-3l-2.3-2.5l1.9-2.2l3.8,1l-1.2-6.2l3.4-1.1l0.8-2.6l-2.7-1.1l1-2.4l3.6,1.5l0.2-5.5l5-0.4L206,389
	l3.1-0.3l-1.6-2.1l0.3-4.6l3.8-2.2l-2.1-6.9l3.2-1.4l0.6-2.1l3.8,2.8L224.9,369.2z"/>
<path id="PL-PK" class="st0" d="M473.2,406.2l2.6,3.2l6.7-1.1l3.3-3.4l6.4,1.9l2.3,4.2l-4.1,8.6l4.3,0.2l3,4.2l5.5,0.5l4.2,3.7
	l2.9-1l3.4,1.5l-0.5,6.6l2.8-0.1l0.4,1.4l-3,1l3.8,0.5l-2.6,2.5l-6.1-0.8l0.8,2.6l-2.9,1.1l-0.6,2.6l2.2-0.4l4.1,5.3l11-1.1
	l-4.7,2.6l0,1.9l25,2l10-10.4l4.2,3.6l6.6-5l1.7,0.5l-0.5,3.5l3,2l0,0h0.4l0,0l-1.7,4.3l6.9,0.8l-0.6,3.3l2.1,1.2l0,0l-16,13.8
	l-38.9,54l3.5,3.4l3,12.3l-0.4,10.6l-1.5,1.6l2,1.4l-2.4,3.8l0.7,1l2.2-1.7l-1,2.2l3,0.1l2.5,4.3l3.7,1.4l-1.5,2.8l1.5,5.5L533,577
	l-4.7-4.7l-5.4,1.3l-5.8-5.3l-5.4,1l-4.7-1.2l-3.3-4.2l-3,0.8l-5.6-1.6l-0.1-2.8l-2.1,0.8l-8.6-4l-1-5.8l-4.3-6.3l-3.6-0.2l-3.8-3.8
	l-2.7,1.2l-0.5,2.2l-4.1-5.4l-3.8-0.4l-1.6-2.9l-9.7,3.2l-4.7-1.8l0,0L444,532l1.8-0.9l-3.7-4.7l0.9-2.4l-2.9-1.9l2.6-5.2l-0.7-5
	l-2.5-5.3l-3-0.4l-1.1-2l-5.5-0.1l0.8-3.6l-1.9-2.3l5.6-1.2l0.2-3.1l3.1,0.2l0.8-1.6l-1-2l-5.8-0.4l-2-5.4l2.6-4.2l-2.5-2.6l2.3-1.7
	l-1.2-1.5l2-0.5l-0.6-2.7l-2.5-0.7l1.8-0.4l-2-0.5l1.5-6.5l-1.9-4.4l4.5-5.2l-0.6-3.9l0,0l0.2,0l0,0l0.5-0.4l0,0l5.6-6.1l8.1-3.3
	l0.2-3.3l9.2-2.5l4.5-8.7l5.1-4.2l1.9,1L473.2,406.2z"/>
<path id="PL-PD" class="st0" d="M534.1,45.1l8.8,2.7l-1,2.2l4.1,1.9l-1.1,2.9l3,1.8l3.3-1.7l5.5,5.7l6.3,1l9.1,10.3l2.5,9l-0.2,3.6
	l-2.6,3.3l2.1,4.2l0.5,9.9l1.7,1.1l-0.2,8.4l2,2.7l4.8,22.8l8.5,25.4l7.2,11.7l-2.8,7.7l4.5,12.3l-1.8,2.1l1.3,22.7l-12.4,10.6
	l-5.9,0l-10.1,5.3l-7,8.3l-10.9,18.6l0,0l-2.9-0.2l0,0l-1.3-1.6l-3.5,1.6l-0.5-4L542,257l-2.8-3.8l-6.2,1.2l-6-2.5l-1.4,1.9
	l-1.4-2.7l-7.7-0.1l-2.3-3l0.7-4.1l-2.5-1.8l0.9-4l-4.2-6.4l-3.9-2.7l4.3-4.5l-0.6-13.5l-4.3-0.8l0.1,1.6l-3.3,2.2l-0.8-2.2
	l-2.2,0.2l-2.2-5.9l2.9-0.1l0.9-1.8l-1.9,0.4l-0.5-3.6l-3-0.1l-0.3,2.9l-10.7,0.8l-2.8-6.4l2.1-2.1l-2.3-2.3l0,0h0.5l0,0l-7.2-4.7
	l1.1-3.6l2.6,0.7l-1.1-1.7l0,0l1.1-1.6l0,0l-4.4,1.1l-3.6-5.5l-4.5,0.6l-2.3-2.8l0.6-2.8l-2.2-4.4l1.1-0.7l-3.9-5.2l2.1,0.4l-1-2.4
	l1.6-3.2l0,0l0,0.4l0,0l4.2,0.1l-2.7-2.4l-2.4,0.4l1.9-3.6l-3.5-4.2l0.8-1.9l-2.6-4l0,0h0.5l0,0l-0.3-1.5l0,0l0.7,0l0,0l4.8-1.3
	l10.6,3.6l3.8-5.2l4-1.3l2.3,2.4l20.1-16.2l3.9-2.6l2.9,1.8l-0.6-3.3l3.2-0.2l4.3-3.8l1.4,1.7l1.3-3.9l1.1,0.7l0,0l0.8-0.4l0,0
	l3.7-2.9l0.9-5.5l3.9-4.5l-0.7-5.1l-6.9-11.6l-3.4-2.1l1.5-4.4l-2.6-5l-2.8,0.5l-4.7-5.9l2.6-4.4l6.5-2l1-2l3.7,0.8l4.6-1.8l1.9-5.2
	l-1.1-2.3l0,0l2.9-4.4L534.1,45.1z"/>
<path id="PL-PM" class="st0" d="M255.1,0.3l22.8,13.6l9.3,8.5l-0.7,3.6L280,16L262.8,5.3l-1.7,6.2l4.7,3.7l-0.1,6.6l2.9-0.9
	l-0.2,3.3l3.2,6.2l-1.2,1.4l-2.6-0.9l3.3,1.5l0.3,8l3.8,4.2l6,0.9l-2.1,0.6l2.6,2.6l10,2.9l2.8-2.1l3.6,2.3l12.7-0.9l13.1-3.1
	l13.7-6.9l-14.5,8.7l-11.4,3.2l2.1,2.4l0.2,4l0,0l3.7,6.6l-4.4,3.6l1.3,2.2l-3.1,8.8l4.5,2l-1.1,1.7l1.1,1.8l1.9-0.9l5.3,2.8
	l-1.6,3.1l1.5,3.2l11.1-2.4l-3,7.5l0,0v0.3l0,0l-4,7.1l1.3,1.1l-1.1,2.9l-2.1-3.2l-5.7-1.5l-2.2,1.2l-1,6.6l-4.7,5l-0.2,5.2
	l-2.3,0.2l-2.9,3.4l0.5,2.9l0,0l-9.2-1.2l-5.5,1.9l0.2-1.8l-8.4-1.1l-1.8-3.8l1.8-5.8l-2.3,1.6l-4.7-1.1l-1.5,2.2l-3.2-0.4l0.5,1.8
	l-1.9,0.4l-2.4-2.6l0.2-2.5l-2.8,0.2l-0.7,1.7l-12-1.5l0.2-4.4l-4.2-0.1l0,0v-1.1l0,0l-1.9,1.3l-1.1-2.4l-2.4,0.8l-2.3-2.5l-4.2,6.1
	l-3.6-3.4l-5.3-0.5l1.9,5.2l-4.5,2.6l-4.5-0.4l-2.3,6l1,3l-3.9,0.2l0.9,2.9l-3.9-2.6l-2.1,1.9l-3-0.7l-0.9-3.6l-5.5,4l-1.8,9.6l0,0
	l-3.3-1.2l0,0l-0.2-0.1l0,0l-1.8-2.7l-3.9-0.6l0,0l-1.3,0.1l0,0l-3.5,0.7l-4.1-1.6l-2.6,2.6l-3.2,0l0-3.3l-3.1,0.6l-3.4-11.6l0,0
	l-2.2-9.2l5.3-5.4l-4.4-3.3l0-3.8l1.3-1.3l4.6,0.7l0.8-3.4l-6.5-3.7l-0.1-3.6l-2-2.3l-1.5-0.8l-0.8,2.6l0,0l-0.7,0.1l0,0l-0.4-4.9
	l0,0l0.4-0.5l0,0l1.2-4.1l-1.9-2.8l1.3-1.8l-5.5-10.1l1-2.1l7.5-2.8l0.7-2.3l-3.1-3.6l-0.5-5l2.7-0.7l-0.4-7.7l-1.4-3.3l-2.9-1.2
	l-2.8-8.2l0,0l10.5-2.7l9-7.9l13.1-6.8l42.3-10.2L255.1,0.3L255.1,0.3z"/>
<path id="PL-SL" class="st0" d="M277.7,382.5l11.7-2.1l1.6,1.6l2.2-3.7l2-0.3l7.2,6.2l2-0.6l2.1,3.2l1.7-0.8l3.6,2.9l2.7-1.6
	l-0.4-2.7l3.9-1.3l-0.5,2.2l2.4,3l2.4-1.9l1.3,0.8l4.1,5.9l1.1,5.2l5.6-2l4.9,2.5l0.4,3l4.6-1.1l0,0l5.3,4.1l-0.2,1.4l-2.2-0.9
	l-2.7,6l-2.9-0.8l1.4,4l7.1,0.8l2.1,1.7l-1.7,1.1l0.2,2.2l4.1,0.6l-0.6,3l-3.3,0.2l-4.4,6.3l6.9,1.4l0.7,2.6l2.3,0.7l0,0l1.3,2.8
	l-4.4,0.1l-0.1,1.9l-2.8,1.4l-8.6-0.5l-3.1,2.9l-4,0.7l-3.9-1.1l-2.1,2l0.5,2.6l-2.5-0.6l0,0l-0.3,0.1l0,0l2.5,1.9l-0.4,3l-7.6,0.4
	l-3.4,2.7l1.1,3l6.2,3.1l-0.7,2.1l-4.4,1.7l1.3,1.6l-1.5,2.2l-4.1,0.6l-1.1,2.8l-0.3-1.9l0,0h-0.3l0,0l-2.3,5.3l1.2,0.9l-3.9,0.6
	l-3.5,5.8l0.2,3.3l-1.9,1.2l2.1,1.1l0,0h0.8l0,0l1.1,0l0,0h0.6l0,0l2.2-1.4l1.1,1l-2.2,7.8l7.4-0.6l2,7.7l7.3,1.2l0.7,3.2l-4.6,4.3
	l6,2.4l-0.8,5.3l0,0l-5.9,4.2l-0.7,3l-6,0.4l-2.2,7.2l-2.3,1.8l0.4,2.2l-4.4,0.8l-2.9-1.3l-2.4,2l-3.4,0l-0.5-10.1l-8.3-1.8l1.3-2.5
	l-3.1-11.9l-4,0.1l-2-2.7l-5.1-1.7l-3.4-9.9l2.1-3.2l-2.4-1.8l0.4-3.9l-5.1,1.6l-3.6-3.2l-5.9-1l1.1,1.3l-2,1.8l-2.6-4.7l-3.8-0.7
	l-0.5-2.5l-3.2,1.5l-2.3-1.1l-1.6-4.7l-3.4-2.1l0,0l2.4-4.2l-0.7-6.2l2.4-0.6l0.6,1.4l0.7-1.4l7.8-1.4l0,0l-0.4,0l0,0l-0.4-1.8
	l7.1-4.1l4.5,1l-0.3-2.3l-1.7-0.3l0.7-4.6l-2.9-3.1l2.2-3.1l-1.8-2.9l1.5-2l-0.5-4.2l6.2,2.4l-2.9-8.1l10.4-0.5l-0.3-5.3l-4.1-1.8
	l-2.7-7.5l5.6-4.2l-4.3-5.2l3-0.7l0.7-3.1l3.3-2.6l1.3-5.5l-1.8-3.7l2.3-1.7l-0.1-2.9l2.4-1.2L277.7,382.5z"/>
<path id="PL-SK" class="st0" d="M385.3,353.7l5.4,0.8l-1.3,2.9l2.6,1.9l0.9,5.6l3.2-1l5.6,4.9l-0.7,4.4l1.9-2.2l8.5,4.5l0.1-1.6
	l2,0.8l0.2-3.5l3.2,2.5l2.3-2.1l0.8,2.1l3.7-1.2l1.5-5.5l2.2,2.7l-1.8,3.2l4.5,2.4l-0.7,4.7l12.2-0.4l1.9,4.3l4.9,2.7l3.1-2.4
	l-0.3-2l2.1,0.9l5.3-1.6l-1.1-1.1l3.9-0.2l2,3.5l2.8,0.2l3.2-2.8l0,0l2.2,21.9l1.6,2.9l0,0l-4.9,16.2l-1.9-1l-5.1,4.2l-4.5,8.7
	l-9.2,2.5l-0.2,3.3l-8.1,3.3l-5.6,6.1l0,0l-0.5,0.4l0,0l-0.2,0l0,0l-2,2.4l-2.6-2.4l-4.6,3.6l-10,1l-3.5,3.2l-2.8-1.5l-6.8,7.4
	l-15.9,1.9l-0.3-1.7l-2.2-0.3l1.4-2.6l-3.5-3.3l1.6-2l-4.2-3.1l-0.2-2.5l2.7-1.2l-4.1-6.5l0-3.4l-17.4-4.8l-2.3,1.4l0,0l-2.3-0.7
	l-0.7-2.6l-6.9-1.4l4.4-6.3l3.3-0.2l0.6-3l-4.1-0.6l-0.2-2.2l1.7-1.1l-2.1-1.7l-7.1-0.8l-1.4-4l2.9,0.8l2.7-6l2.2,0.9l0.2-1.4
	L344,401l0,0l2.4-3.4l0,0l-0.1-0.2l0,0l1-0.1l0,0l0.5-0.4l0,0l1-1.1l0,0l0.1,0l0,0l0.9-1.4l0,0v-1l0,0l-0.9-4.3l2.9-7.1l5.2,6.1
	l4.2,2.2l1.8-9.2l-4.7-1.5l-0.1-6.1l2.5-2.3l-1.3-3.1l2.9-1.2l6.1,2.4l1.6-1.7l3.7,0.4l1.4-1l-1.4-4l1.1-0.3l2.7,1.8l1.7-1.6l2.4,2
	l1.4-3.2l-1.3-4l2.6-1L385.3,353.7z"/>
<path id="PL-WN" class="st0" d="M349.9,42.3l47.8,7.5l49.9,5.2l81.9-5.2l0,0l1.1,2.3l-1.9,5.2l-4.6,1.8l-3.7-0.8l-1,2l-6.5,2
	l-2.6,4.4l4.7,5.9l2.8-0.5l2.6,5l-1.5,4.4l3.4,2.1l6.9,11.6l0.7,5.1l-3.9,4.5l-0.9,5.5l-3.7,2.9l0,0l-0.8,0.4l0,0l-1.1-0.7l-1.3,3.9
	l-1.4-1.7l-4.3,3.8l-3.2,0.2l0.6,3.3l-2.9-1.8l-3.9,2.6L483,139.3l-2.3-2.4l-4,1.3l-3.8,5.2l-10.6-3.6l-4.8,1.3l0,0l-0.7,0l0,0
	l-9,1.6l-0.3,2.4l-5.1,2.1l-5.3-1l-13.5,9.9l-3.4-2.9l-3.8,0.4l-1.6,1.3l1,2.8l-3.2-0.2l-1.3,3.1l-8.1-2l-3.8,6.2l-6.3,2.7l-5.9-2.1
	l-4.8,3.8l0.7,4.7l-4.3,2.6l-8.5-1.8l-2.2,1.1l-2.4-2.2l-7.2,2l-4.2-2.8l0.5-3.4l0,0l-0.3-0.6l0,0l-5.1,3l0.7,4l-5.2-0.8l0,0
	l-1.5-5.2l0,0h0.3l0,0l-0.1-2.4l-3.2-0.7l-0.3-2.4l2.8-1.4l-2.7-7.7l-9.1,0.8l-1.4-3.7l-3.9,0.8l0.2-1.8l-3.8-3.3l-4.3,0.4l-0.8,2.1
	l-1.9-1.4l-4.2-10.9l-0.3-5.8l-3.4-1.5l0,0l-0.4-2.9l2.9-3.4l2.3-0.2l0.2-5.2l4.7-5l1-6.6l2.2-1.2l5.7,1.5l2.1,3.2l1.1-2.9l-1.3-1.1
	l4-7.1l0,0v-0.3l0,0l3-7.5L323.2,94l-1.5-3.2l1.6-3.1l-5.3-2.8l-1.9,0.9l-1.1-1.8l1.1-1.7l-4.5-2l3.1-8.8l-1.3-2.2l4.4-3.6l-3.7-6.6
	l0,0l6.9,1l1.7-2l-2.7,6.1l1,0.6l1.2-4.5l6-6l10.7-3.7l4.7-8L349.9,42.3z"/>
<path id="PL-WP" class="st0" d="M169.5,123l3.4,11.6l3.1-0.6l0,3.3l3.2,0l2.6-2.6l4.1,1.6l3.5-0.7l0,0l1.3-0.1l0,0l3.8,0.6l1.8,2.7
	l0,0l0.2,0.1l0,0l3.3,1.2l0,0l-8.8,11.4l1.2,3.5l0.9-1.4l3.5,1.2l6,8.1l-1.5,4.1l-5.5,1.3l1.6,1.5l-0.6,4.7l3.2,1.3l-2.4,1.2l0.6,4
	l-2.4,1.4l0.4,5.9l0,0l-0.3,0.1l0,0l-1.5,2.2l0.9,2.2l4.8-0.9l7.5,5.6l-0.9,14.1l-5.8,0.3l-0.3,2.9l5.1,2.8l-1,4.7l3.2,0.9l3.4-3.2
	l3.2-0.4l-0.1,5.6l3.1,0.4l-0.2,4.8l5.2-5.6l0.4,2.3l1.4-2.3l2.8,2.2l2.3-0.6l2.9,5.6l1.2-1l2,2.9l1.3-1.1l-0.5,3.5l6.6-0.9
	l-0.2,3.4l6.3,1.5l0.5,2.2l3.4,0.2l6.5-6.1l1.2,7.3l4.6-0.6l1.6-2.8l2,0.6l2.3,3.6l2-0.6l3.4,1.8l0.5,2.8l1.6-0.6l-0.2,2.8l2.2,0.2
	l2.4,6.4l9.6-3.3l0.6-3.4l3.3,2.5l-0.4,1.9l4.7,2.3l0,0l-1,6l4.3,0.5l0.3,2.4l-2,1.4l1.1,2.1l-5.8-1.6l-4,1.6l-1.2,5.7l2.2,2l-1,3.9
	l-5.3,0.1l-0.9,2.7l-5.2-1.8l-1.9,1.2l0.8,9.6l4.1,3.8l-5.7,6.7l-0.6,4l-5.7-2.1l-4.8,1.2l-0.8-2.2l-1.8,0.6l-0.2,3.1l-1.9-0.5
	l0.3,2.1l-1.9,1.3l1.2,2.5l-1.6,1.7l0.4,4l-3.5,4.5l1.7,0.7l-2,5l1.8,0.7l-1.2,6l1.5,5.7l-3.4,5.5l-5.4-3.2l-2.8,0.8l1.4,2l-0.8,2.9
	l-3.4,0.4l-1.1,2.8l-2.8,0.5l1.9,8.8l4.3-0.6l-1.5,9.4l0,0l-16.7,6.8l-4-1.5l1.9-5.4l-3.1-1.6l0,0l-3.2-5.3l0.2-8.4l-2.2-1.2
	l1.8-6.7l-11.9,1l-2.2-9.9l4.1-3.2l-1.4-3.7l0,0V331l0,0l-5.4-4.1l-10.4-2l-5,1.6l-0.7,6.1l-5.9-0.8l-2.6,0.9l-0.3,2l-5.9,0
	l-10.1-5.4l-1.9-4.6l-7.8-1.2l1.5-4.7l-2.2-4.2l-4.9-3.3l-7.7-0.1l0,0l-2.2-6.5l-5.5-4.6l-3-0.8l-2.8,3.5l-2.4-2.2l-3.7-0.2l2.2-3.1
	l-0.9-6.7l-6.4,1.9l-3.7-4.8l1.8-2.6l-0.5-2.3l-2.2-1l-1.3,1.7l-4.3-4.5l1.8-3.4l-1.5-11.5l3-12.8l-5.6-4.8l0.8-1.8l1.4,2.7l3.1-2
	l-1-4.4l-3.2-3.2l1.4-2.5l-4.3-6.1l2.2-6.8l-1.2-3.4l8.7-2l-0.6-7.2l-2.6-1.1l0.8-2.5l4.3-2.1l-0.8-10.7l0,0l-0.2-0.1l0,0l-0.5-3.1
	l0,0V190l0,0l0.6-4.2l0,0l9.4,3.4l9-4.3l3.1,0.8l-0.7-1l3.6-3.5l-1.1-3.9l2.7-1l1.2-4.4l1.3,1.5l2.5-2.8l2.6,0.8l1.1-4.7l1.7,0.5
	l0.1-1.6l4.8,2.1l-0.6-5.4l4.9-4l-4.5-4.3l-4.6-1.3l-3.2-3l-1.8,0.6l-1.7-8.5l0.4-1.1l2.2,1.7l9.6-1.6l4.4-3.6l1.9-10.3l4.3-2.2
	l1.2,1.8L169.5,123z"/>
<path id="PL-ZP" class="st0" d="M11.8,102.2l4.8,0.6l-3,2.2l0,2.4l-3.6-5.1C10.1,102.3,11.8,102.2,11.8,102.2z M17.7,102.1l0.6,1.3
	l-2,1L17.7,102.1z M13.1,101l1.7,1.4l-2.8,0L13.1,101z M15.2,99.8l-0.1,2.5l-1.2-1.7L15.2,99.8z M8.1,95.5l1.8-0.2l-2,2.6l5.6,9.5
	l-7.6-6.1l0.1-3.5l-1.8-1.3L8.1,95.5z M39,91.1l0,1.5l-3.2,0.3l0.4-3.1L39,91.1z M39.6,85.5l-4.4,2.7l0.1,5.9l-3.7,4.4l-2.8,9.6
	l-1.3-5.2l-8.6-1.3l0.6-4l-0.7,1.9l-2.5-0.8l-5.7,3.5l0.8-1.2l-2.9-2.6l1.7-2.6l6.9,0.4l6.1-4.7C23.2,91.4,39.6,85.5,39.6,85.5z
	 M159.3,28.4l2.8,8.2l2.9,1.2l1.4,3.3l0.4,7.7l-2.7,0.7l0.5,5l3.1,3.6l-0.7,2.3l-7.5,2.8l-1,2.1l5.5,10.1l-1.3,1.8l1.9,2.8l-1.2,4.1
	l0,0l-0.4,0.5l0,0l0.4,4.9l0,0l0.7-0.1l0,0l0.8-2.6l1.5,0.8l2,2.3l0.1,3.6l6.5,3.7l-0.8,3.4l-4.6-0.7l-1.3,1.3l0,3.8l4.4,3.3
	l-5.3,5.4l2.2,9.2l0,0l-3.1,3.3l-1.2-1.8l-4.3,2.2l-1.9,10.3l-4.4,3.6l-9.6,1.6l-2.2-1.7l-0.4,1.1l1.7,8.5l1.8-0.6l3.2,3l4.6,1.3
	l4.5,4.3l-4.9,4l0.6,5.4l-4.8-2.1l-0.1,1.6l-1.7-0.5l-1.1,4.7l-2.6-0.8l-2.5,2.8l-1.3-1.5l-1.2,4.4l-2.7,1l1.1,3.9l-3.6,3.5l0.7,1
	l-3.1-0.8l-9,4.3l-9.4-3.4l0,0l1.5-6.3l-8.1-1.9l0.4,2.4l-3.1,1.4l0.5,2l-2.5,0.5l1.7,2.1l-3.2,1.3l1,2.1l-2.3,1.3l-2.4-1.2
	l-2.6,2.2l-5.7-3.2l-8.2,2.8l-3.3,3.8l-4.6-1l2.2,6.5l-14.9,6.4l-2.2-2.5l-2.6,1.8l-5.3-4.4l-2,2.8l2,1.9l-3.9,1.2l0.8,3l-4,3.2
	l-3.2,11.5l-2.3,1.4l-4.7-2.6l-2.1,1.8l0.1,3.6l0,0l-8.3-5.5l-6.9-8.9l-8.1-6.6l-5.8-2.2l2.3-4.7l-1-7.7l12.2-9.2l2.6-9l-0.6-5.9
	l4.3-6.4l-2.4-4.6l-3.3-18.8l-2.8-5.3l0.6-7.6l-2-1.8l-1.1-6.5l2.6-0.6l-1.4-4l2.8,0.9l4.6,5.7l5.9,1.2l5.7,7.4l1.3-6.2l-3-0.1
	l-2-4.8l1.7-6.2l3-0.5l-0.6-5.6l2.7-7.5l4.4-4.6l2.2,1.6l0.3-4.8l1.4-0.4l-1.3-2l2.4-3.7l-4.8,0.8l34.7-12.9l12.6-2.1l21.3-7.6
	l15.2-3.4l10.2-8.1L147,31.6L159.3,28.4L159.3,28.4z"/>
<rect x="170.6" y="345.2" class="st2" width="49.4" height="14.7"/>
<text transform="matrix(1 0 0 1 170.5562 350.1355)" class="st3 st4">Wrocław</text>
<circle class="st1" cx="245.9" cy="159.4" r="8.9"/>
<rect x="230.1" y="141.9" class="st2" width="49.4" height="14.7"/>
<text transform="matrix(1 0 0 1 230.0604 146.9042)" class="st3 st4">Bydgoszcz</text>
<circle class="st1" cx="272.8" cy="172.5" r="8.9"/>
<rect x="264" y="155.1" class="st2" width="49.4" height="14.7"/>
<text transform="matrix(1 0 0 1 263.9544 160.0468)" class="st3 st4">Toruń</text>
<circle class="st1" cx="553.5" cy="375.7" r="8.9"/>
<rect x="544.6" y="358.3" class="st2" width="49.4" height="14.7"/>
<text transform="matrix(1 0 0 1 544.6218 363.2781)" class="st3 st4">Lublin</text>
<circle class="st1" cx="70.7" cy="215.2" r="8.9"/>
<rect x="42.9" y="197.8" class="st2" width="73.3" height="14.7"/>
<text transform="matrix(1 0 0 1 42.9468 202.7466)" class="st3 st4">Gorzów Wielkopolski</text>
<circle class="st1" cx="325.5" cy="301.5" r="8.9"/>
<rect x="316.5" y="284.1" class="st2" width="49.4" height="14.7"/>
<text transform="matrix(1 0 0 1 316.5033 289.0635)" class="st3 st4">Łódź</text>
<circle class="st1" cx="361.9" cy="508.3" r="8.9"/>
<rect x="353.1" y="490.9" class="st2" width="49.4" height="14.7"/>
<text transform="matrix(1 0 0 1 353.0504 495.8818)" class="st3 st4">Kraków</text>
<circle class="st1" cx="405.2" cy="269.3" r="8.9"/>
<rect x="389.4" y="251.9" class="st2" width="49.4" height="14.7"/>
<text transform="matrix(1 0 0 1 389.3865 256.8742)" class="st3 st4">Warszawa</text>
<circle class="st1" cx="233.5" cy="419.5" r="8.9"/>
<rect x="221.9" y="402.1" class="st2" width="49.4" height="14.7"/>
<text transform="matrix(1 0 0 1 221.9062 407.0717)" class="st3 st4">Opole</text>
<circle class="st1" cx="490.9" cy="503.7" r="8.9"/>
<rect x="482" y="486.3" class="st2" width="49.4" height="14.7"/>
<text transform="matrix(1 0 0 1 482.0457 491.2855)" class="st3 st4">Rzeszów</text>
<circle class="st1" cx="563.1" cy="176.8" r="8.9"/>
<rect x="547.2" y="159.4" class="st2" width="49.4" height="14.7"/>
<text transform="matrix(1 0 0 1 547.2316 164.32)" class="st3 st4">Białystok</text>
<circle class="st1" cx="272.8" cy="49.4" r="8.9"/>
<rect x="246.6" y="59.6" class="st2" width="49.4" height="14.7"/>
<text transform="matrix(1 0 0 1 246.6191 64.5911)" class="st3 st4">Gdańsk</text>
<circle class="st1" cx="296" cy="473.6" r="8.9"/>
<rect x="284.4" y="456.2" class="st2" width="49.4" height="14.7"/>
<text transform="matrix(1 0 0 1 284.4343 461.1466)" class="st3 st4">Katowice</text>
<circle class="st1" cx="303.5" cy="399.8" r="8.9"/>
<rect x="291.9" y="382.4" class="st2" width="49.4" height="14.7"/>
<text transform="matrix(1 0 0 1 291.9005 387.3389)" class="st3 st4">Częstochowa</text>
<circle class="st1" cx="386.9" cy="391.7" r="8.9"/>
<rect x="375.3" y="374.3" class="st2" width="49.4" height="14.7"/>
<text transform="matrix(1 0 0 1 375.2912 379.2433)" class="st3 st4">Kielce</text>
<circle class="st1" cx="376.5" cy="114" r="8.9"/>
<rect x="367.6" y="96.6" class="st2" width="49.4" height="14.7"/>
<text transform="matrix(1 0 0 1 367.5883 101.5213)" class="st3 st4">Olsztyn</text>
<circle class="st1" cx="156.5" cy="246.9" r="8.9"/>
<rect x="140.6" y="229.5" class="st2" width="49.4" height="14.7"/>
<text transform="matrix(1 0 0 1 140.6262 234.461)" class="st3 st4">Poznań</text>
<circle class="st1" cx="30.8" cy="140.3" r="8.9"/>
<rect x="37.4" y="147.7" class="st2" width="73.3" height="14.7"/>
<text transform="matrix(1 0 0 1 37.3957 152.6805)" class="st3 st4">Szczecin</text>
</svg>
